<svg width="41" height="41" viewBox="0 0 41 41" fill="none" xmlns="http://www.w3.org/2000/svg">
<g id="Google_ G _Logo 1">
<path id="Vector" d="M38.54 20.9271C38.54 19.5946 38.4204 18.3133 38.1983 17.0833H20.5V24.3608H30.6133C30.1692 26.7012 28.8367 28.6829 26.8379 30.0154V34.7475H32.9367C36.49 31.4675 38.54 26.65 38.54 20.9271Z" fill="#4285F4"/>
<path id="Vector_2" d="M20.5 39.2917C25.5738 39.2917 29.8275 37.6175 32.9367 34.7475L26.8379 30.0154C25.1638 31.1429 23.0283 31.8263 20.5 31.8263C15.6142 31.8263 11.4629 28.5292 9.97668 24.0875H3.72418V28.9392C6.81627 35.0721 13.1542 39.2917 20.5 39.2917Z" fill="#34A853"/>
<path id="Vector_3" d="M9.97668 24.0704C9.60084 22.9429 9.37876 21.7471 9.37876 20.5C9.37876 19.2529 9.60084 18.0571 9.97668 16.9296V12.0779H3.72418C2.44293 14.6063 1.70834 17.4592 1.70834 20.5C1.70834 23.5409 2.44293 26.3938 3.72418 28.9221L8.59293 25.1296L9.97668 24.0704Z" fill="#FBBC05"/>
<path id="Vector_4" d="M20.5 9.19081C23.2675 9.19081 25.7275 10.1475 27.6921 11.9925L33.0734 6.61123C29.8104 3.5704 25.5738 1.70831 20.5 1.70831C13.1542 1.70831 6.81627 5.9279 3.72418 12.0779L9.97668 16.9296C11.4629 12.4879 15.6142 9.19081 20.5 9.19081Z" fill="#EA4335"/>
</g>
</svg>
